<?xml version="1.0" encoding="UTF-8"?><svg id="Layer_1" xmlns="http://www.w3.org/2000/svg" viewBox="0 0 3000 3000"><defs><style>.cls-1{fill:#fff;}.cls-1,.cls-2{stroke-width:0px;}.cls-2{fill:#231f20;}</style></defs><rect class="cls-1" width="3000" height="3000"/><path class="cls-2" d="m1522.32,790.56c-3.5-4.99-4.14-11.99-6.06-18.07h-7.76c-2.19,6.3-3.22,13.38-6.81,18.73-6,8.93-8.07,18.4-6.82,28.5,1.08,8.6.64,50.98-4.47,58.76-4.27,6.5-5.38,13.75-5.12,21.3.18,5.5.57,10.97.68,16.45.33,15.52-3.81,29.04-15.7,40.08-8.74,8.08-12.35,19.02-13.38,31.98,37.1-10.21,73.38-9.96,110.43-.22-1.06-13.7-5.26-24.58-14.31-33.03-9.6-8.97-13.93-19.99-14.27-32.75-.19-6.78.21-13.56.5-20.32.33-7.87-.27-15.56-4.69-22.37-5.69-8.79-5.75-50.26-5.11-56.75,1.13-11.41-.04-22.21-7.09-32.28Z"/><path class="cls-2" d="m2051.69,2032.51c-21.28-17.11-44.82-30.5-69.47-42-57.1-26.64-117.27-43.46-178.74-56.09-43.64-8.97-87.62-15.87-132.02-19.7-31.51-2.73-63.05-5.74-94.63-7.06-55.87-2.35-111.78-2.44-167.61,1.41-27.37,1.89-54.85,3.18-82.04,6.6-37.42,4.72-74.8,10.22-111.88,17.12-58.8,10.92-116.32,26.79-171.44,50.42-31.87,13.67-62.35,29.82-89.14,52.22-15.01,12.56-27.81,26.99-37.12,44.31-16.21,30.14-13.06,59.46,9.52,85.17,3.27,3.71,4.61,7.35,4.54,12.13-.01,1.07-.03,85.3-.04,196.72,26.18,17.25,53.16,33.37,80.91,48.25,0-167.28.01-311.86.02-315.3.01-4.51.2-9.07,1.04-13.49,1.86-9.65,9.14-16.14,17.72-16.45,8.72-.32,16.19,5.44,18.9,15.05.86,3.03,1.01,6.35,1.02,9.55.01,3.65.02,162.46.02,340.42,20.11,9.73,40.61,18.77,61.41,27.22.02-200.31.04-389.73.07-394.76.02-5.07.66-10.43,2.44-15.11,3.44-8.96,13.21-14.11,21.81-12.59,9.1,1.63,16.19,9.08,17.27,18.48.35,2.88.21,5.8.21,8.71,0,4.95,0,204.78,0,411.2,24.96,8.9,50.36,16.87,76.15,23.88,0-223.78,0-451.32,0-457.65,0-3.24-.13-6.49.21-9.68,1.3-12.07,11.42-20.97,23.01-20.45,11.59.53,20.07,9.23,20.78,21.41.18,3.22.09,6.46.09,9.68v467.67c26.29,5.92,52.96,10.83,79.96,14.73v-499.23c0-3.23-.12-6.48.21-9.68,1.28-11.91,11.15-20.45,23.2-20.26,12.12.21,21.36,8.97,22.22,21.18.15,2.26.04,4.52.04,6.78v506.82c27.32,2.72,54.95,4.36,82.85,4.93v-387.66c0-43.64-.03-87.26.05-130.89.01-4.15.22-8.45,1.25-12.45,2.46-9.44,10.45-15.75,20.34-16.71,10.53-1.01,19.58,2.03,24.62,11.67,2.27,4.29,2.8,9.89,2.82,14.91.21,44.59.1,89.2.1,133.79v387.26c28.2-.73,56.12-2.61,83.72-5.54,0-234.46,0-484.69,0-491.05,0-7.11-.29-14.24,0-21.32.5-11.74,8.59-20.44,19.61-21.61,11.71-1.26,21.84,5.46,24.8,16.97,1.02,4,1.22,8.29,1.23,12.46.05,22.89.06,272.09.06,498.73,26.78-4.04,53.23-9.08,79.31-15.11,0-217.85-.01-449.12.01-468.92,0-3.85.12-7.81.98-11.52,2.38-10.22,10.78-16.87,20.82-17.04,9.46-.16,18.45,6.03,21.17,15.45,1.3,4.57,1.62,9.54,1.63,14.34.07,19.45.08,242.25.08,456.24,25.55-7.13,50.72-15.18,75.44-24.16,0-197.87.01-392.71.06-407.81,0-4.17.21-8.45,1.19-12.46,2.47-9.99,10.87-16.54,20.21-16.31,9.58.24,18.28,7.88,19.93,18.02.71,4.44.72,9.02.73,13.53.03,14.54.03,197.63.04,388.63,20.95-8.66,41.55-17.99,61.79-27.95,0-170.61,0-324.28.02-335.08.02-3.54-.03-7.16.61-10.62,1.62-8.62,8.36-15.11,16.05-15.96,8.61-.95,16.3,3.63,19.44,12.67,1.56,4.46,2.02,9.47,2.03,14.24.07,10.9.1,152.87.11,314.99,25.57-13.93,50.46-28.95,74.68-44.91,0-110.3-.03-194.42-.05-197.62-.04-4.06,1.04-7.23,3.87-10.43,23.9-27.05,26.89-57.1,9.14-88.4-10.04-17.7-23.67-32.24-39.42-44.9Z"/><path class="cls-2" d="m1613.96,1087.18c11.53-20.04,7.67-40.18-10.84-54.04-7.65-5.72-16.48-10.17-25.3-13.94-15.24-6.49-31.5-8.97-47.98-10.47-28.11-2.55-55.37.83-81.81,10.58-10.67,3.95-20.52,9.46-28.83,17.4-13.18,12.6-16.81,28.44-9.14,45.03,3.32,7.19,8.21,13.89,13.5,19.82,3.92,4.4,6.1,8.38,6.03,14.41-.3,27.45-.12,54.9-.16,82.35,0,2.83-.33,5.66-.5,8.07-15.03,9.87-17.37,12.59-19.73,23.07,69.83-21.98,139.43-21.75,209.58,1.96-2.96-13-11.57-19.46-20.92-24.55-.3-1.25-.57-1.87-.57-2.49-.07-30.69-.06-61.36-.22-92.03-.02-4.02,2.07-6.41,4.47-9.16,4.43-5.08,9.06-10.2,12.4-16Zm-134.81,111.71h-11.86c-2.34-7.02-2.73-95.9-.42-106.04,1.07-.22,2.28-.62,3.5-.67,2.56-.11,5.12-.04,8.78-.04v106.75Zm40.15-.27h-11.7c-2-6.85-2.62-91.6-.65-105.96,2.34-.22,4.23-.54,6.11-.54,1.89,0,3.8.33,5.57.5,2.13,7.08,2.71,92.94.66,105.99Zm40.47.22c-3.7.17-7.64.36-11.39.52-2.2-7.61-2.86-91.61-.91-106.79h11.68c2.2,7.13,2.79,93.19.62,106.27Z"/><path class="cls-2" d="m1877.33,1591.83c-17.6-75-47.63-144.41-94.59-206.21-26.25-34.53-55.74-65.36-91.82-89.54-66.13-44.35-138.81-62.98-218-53.47-56.29,6.78-107.25,27.86-152.65,61.77-55.49,41.45-96.24,95.15-127.17,156.52-22.67,44.98-36.16,93.2-46.56,142.24-4.12,19.46-12.05,36.67-23.97,52.3-1.83,2.4-3.44,4.98-5.15,7.47,3.29.15,5.58-.7,7.73-1.83,25.79-13.47,52.6-24.58,80.16-33.89,80.1-27.08,162.79-39.96,246.93-44.19,51.65-2.61,103.3-1.51,154.87,3.26,48.62,4.49,96.68,12.01,144.01,23.94,55.59,14.02,109.28,33.05,158.77,62.63,1.26.76,2.69,1.21,5.02,2.24-.88-1.97-1.09-2.89-1.62-3.59-17.82-23.92-29.12-50.5-35.95-79.64Zm-651.28-33.92c-.02,1.6.09,3.24-.22,4.8-.98,5.21-5.3,9.13-9.69,9.04-4.04-.12-7.95-3.71-9.03-8.62-.4-1.85-.39-3.81-.41-5.73-.04-7.08-.06-14.14.02-21.22.02-2.23.04-4.55.62-6.68,1.36-5,5.45-8.47,9.34-8.32,3.71.12,7.86,4.08,9.02,8.81.37,1.54.32,3.18.34,4.78.05,4.18.03,8.36.03,12.53,0,3.53,0,7.06,0,10.6Zm53.64-17.51c-.33,5.58-5.01,11.18-9.47,12.01-5.93,1.12-13.25-3.83-13.6-10.55-.61-11.86-.7-23.82.11-35.66.52-7.37,8.41-12.29,14.44-10.53,3.89,1.13,8.29,7.44,8.53,12.92.25,5.45.05,10.93.05,16.39,0,5.14.24,10.3-.07,15.43Zm60.33-30.33c0,5.15.08,10.31-.03,15.47-.04,1.9-.12,3.93-.8,5.67-2.33,5.96-8.1,9.79-13.34,9.1-4.64-.61-10.6-6.56-10.77-12.17-.37-12.56-.6-25.17.1-37.7.43-7.87,7.8-13.4,14.38-12.36,4.7.75,9.84,7.42,10.43,13.6.06.63.03,1.29.03,1.95v16.44Zm60.39,4.03c-.41,8.29-7.38,14.04-15.57,13.23-5.77-.56-11.73-6.67-11.91-13.15-.3-11.59-.33-23.2,0-34.81.2-6.8,6.53-13.49,12.35-14.05,7.78-.76,14.67,5.41,15.14,13.95.31,5.79.06,11.61.06,17.41s.23,11.62-.06,17.41Zm59.86-6.37c-.17,7.58-7,13.72-14.43,13.61-7.07-.09-13.15-6-13.71-13.3-.06-.64-.03-1.28-.03-1.94-.01-5.14,0-10.28,0-15.43h.04c0-6.11-.33-12.25.07-18.31.53-8.06,8.05-14.17,15.72-13.36,5.79.63,12.17,7.42,12.32,14.02.27,11.57.27,23.14.01,34.72Zm69.02-21.06c0,4.81.07,9.64-.02,14.46-.13,7.52-4.9,14.58-10.91,16.29-6.94,1.99-15.26-.93-19.36-7.29-1.29-2.02-1.9-4.77-1.94-7.19-.21-10.62-.28-21.22-.04-31.82.22-8.81,7.48-15.5,16.2-15.47,8.87.03,15.61,6.48,16,15.6.21,5.13.03,10.28.03,15.43h.03Zm65.04,21.01c-.33,7.64-6.94,13.75-14.38,13.66-6.51-.08-13.49-5.82-13.69-12.28-.39-12.22-.39-24.45-.02-36.67.21-7.09,7.17-13.37,13.8-13.44,7.09-.08,13.87,6.35,14.29,13.99.3,5.79.06,11.59.06,17.37,0,5.8.21,11.59-.05,17.37Zm59.05,6.28c-.45,7.61-6.51,13.31-13.62,13.39-6.82.07-13.42-5.26-13.64-12.11-.4-12.23-.38-24.48,0-36.72.19-6.92,6.62-13.03,12.85-13.26,6.76-.24,13.2,5.56,14.36,12.95.1.63.13,1.29.13,1.92,0,5.48,0,10.95,0,16.43-.01,5.79.26,11.61-.08,17.38Zm57.74-4.09c0,5.47.12,10.94-.07,16.39-.07,2.18-.45,4.54-1.41,6.45-2.95,5.9-8.05,8.62-13.16,7.51-4.14-.9-9.72-7.01-9.82-11.95-.28-12.54-.35-25.09.03-37.63.19-6.15,6.2-12.22,11.22-12.6,6.79-.52,12.68,5.3,13.11,13.5.34,6.09.07,12.2.07,18.33h.03Zm58.53,32.08c-.27,5.98-6.42,10.68-11.74,10.52-5.21-.13-10.63-5.28-11.07-11.27-.41-5.74-.08-11.55-.08-17.32h-.04c0-5.15-.2-10.3.05-15.41.28-6.07,4.96-12.22,9.48-12.98,6.02-1.04,12.85,3.67,13.32,10.86.77,11.82.63,23.75.09,35.6Zm49.3,22.2c-1.75,3.77-3.8,7.56-8.9,7.59-4,.03-8.97-3.53-9.19-8.26-.5-11.2-.5-22.45.08-33.65.26-4.81,5.15-8.62,8.94-8.66,4.13-.05,8.36,4.12,9.48,9.39.13.62.17,1.27.18,1.91v14.45h.03c0,3.85.06,7.7-.03,11.55-.02,1.92.18,4.05-.58,5.68Z"/><path class="cls-2" d="m2006.85,1819.83c-6.74-26.01-20.85-47.76-39.33-66.9-17.64-18.25-37.91-33.12-59.66-46.07-30.64-18.27-63.17-32.36-96.84-43.93-76.23-26.18-155.03-39.06-235.18-44.27-51-3.33-102-2.76-153,1.23-46.4,3.62-92.38,9.91-137.79,20.01-52.77,11.72-104.06,27.95-152.48,52.36-31.31,15.79-60.61,34.54-85.35,59.75-16.74,17.07-30.08,36.41-37.69,59.17-9.91,29.65-7.21,57.98,10.98,84.02,2.76,3.96,3.98,7.81,3.88,12.54-.2,10.01-.03,20.03-.02,30.05v15.18c18.04-6.94,34.5-13.28,51.63-19.88v-10.62c0-27.79-.14-55.6.11-83.37.06-5.74.93-11.62,2.49-17.14,1.44-5.07,4.77-9.64,10.88-9.46,5.54.15,8.78,4.28,10.14,9.1,1.37,4.9,2.18,10.1,2.23,15.18.21,25.52.06,51.06.1,76.59,0,3.39.31,6.78.54,11.43,13.92-3.89,26.5-7.38,40.04-11.16v-88.49c0-7.76-.12-15.52.05-23.27.11-4.51.29-9.1,1.19-13.49,1.64-7.98,7.58-13.74,13.19-13.54,5.41.21,10.73,5.56,12.43,13.23.87,4.05,1.15,8.32,1.18,12.49.07,31.34,0,62.69.03,94.04.01,3.78.39,7.56.66,12.23,16.35-3.42,31.66-6.63,47.48-9.94v-11.62c0-36.85-.11-73.68.13-110.52.04-5.68,1.01-11.6,2.82-16.97,1.7-5.01,5.67-8.68,11.69-8.65,5.98.02,9.98,3.53,11.68,8.63,1.78,5.39,2.92,11.27,2.96,16.95.25,34.89.1,69.8.15,104.69,0,3.75.48,7.48.82,12.29,19.14-2.64,37.16-5.14,55.54-7.69v-11.84c.01-39.1-.14-78.21.16-117.31.04-5.62,1.11-11.75,3.57-16.72,5.45-11.04,17.8-11.01,23.3,0,2.34,4.67,3.11,10.52,3.15,15.86.24,38.77.09,77.55.14,116.33.01,3.34.49,6.67.78,10.39,21.73-1.85,42.13-3.6,63.36-5.41v-12.73c0-40.07-.06-80.14.08-120.23.03-4.77.46-9.75,1.88-14.24,2.07-6.52,6.58-11.38,13.99-11.52,7.41-.12,12.08,4.58,14.3,11.06,1.53,4.47,2.07,9.44,2.1,14.2.15,40.07.08,80.15.08,120.22v10.77c21.12-.67,40.93-1.3,61.46-1.96v-12.6c0-40.72-.11-81.43.13-122.15.03-5.68,1.04-11.61,2.92-16.97,2.14-6.14,7.08-10.32,13.99-10.09,6.83.22,11.55,4.56,13.61,10.72,1.6,4.79,2.27,10.1,2.3,15.17.16,41.68.06,83.38.1,125.06,0,3.7.45,7.41.68,10.95,22.83.88,44.34,1.7,67.16,2.57v-12.33c-.01-39.74-.09-79.5.08-119.25.02-4.77.69-9.71,2.15-14.22,2.28-6.98,8.45-11.46,14.3-11.21,7.43.32,12.04,4.99,14.11,11.44,1.66,5.1,2.25,10.75,2.28,16.17.18,40.39.08,80.77.12,121.17,0,3.71.43,7.45.68,11.66,19.55.55,37.84,4.23,57.14,3.96v-11.65c0-38.13-.12-76.27.11-114.41.04-5.33,1.13-10.91,2.93-15.94,1.8-5,5.83-8.63,11.67-8.85,6.34-.24,10.65,3.51,12.6,8.87,1.83,5.01,2.8,10.63,2.84,15.98.23,39.42.12,78.85.12,118.28v11.95c18.05,2.66,34.81,5.15,52.74,7.79v-11.57c-.02-36.19.01-72.39-.09-108.58-.02-6.62.72-12.94,4.89-18.33,5.59-7.23,14.17-7.26,19.57.16,1.83,2.54,3.26,5.67,3.84,8.74.9,4.72,1.25,9.61,1.26,14.43.1,36.19.05,72.39.05,108.57v11.76c17.08,3.57,33.05,6.9,50.12,10.48v-11.62c0-30.38-.18-60.75.16-91.13.07-5.61,1.17-11.72,3.64-16.69,4.84-9.75,15.37-9.78,20.18.02,2.58,5.28,3.77,11.71,3.84,17.66.36,32.63.17,65.28.17,97.91v10.96c14.02,4.01,27.43,7.84,41.82,11.96v-11.12c0-26.5-.17-53,.09-79.5.05-5.36,1.14-10.89,2.8-16.01,1.42-4.31,4.6-7.93,9.98-7.8,5.28.14,8.54,3.65,9.81,8.08,1.69,5.79,3,11.93,3.05,17.94.31,28.75.15,57.52.15,86.29v10.8c15.49,6.11,30.33,11.98,46.21,18.24,0-16.45.12-31.61-.07-46.77-.05-4.75,1.28-8.57,4.03-12.49,16.16-23.02,20.76-48.31,13.67-75.55Z"/><path class="cls-2" d="m1504.96,458.47c-576.28,0-1043.44,467.16-1043.44,1043.44,0,315.36,139.91,598.05,361.04,789.38v-110.72c-173.07-174.02-280.04-413.84-280.04-678.65,0-531.54,430.9-962.44,962.44-962.44s962.44,430.9,962.44,962.44c0,264.82-106.97,504.64-280.04,678.65v110.72c221.13-191.33,361.04-474.01,361.04-789.38,0-576.28-467.16-1043.44-1043.44-1043.44Z"/></svg>